<svg width="1946" height="402" viewBox="0 0 1946 402" fill="none" xmlns="http://www.w3.org/2000/svg">
<path fill-rule="evenodd" clip-rule="evenodd" d="M329.491 227.528C316.229 215.122 295.488 215.576 282.783 228.55L281.405 229.957C280.678 230.699 279.529 230.812 278.641 230.274C271.661 226.045 264.177 224.454 257.179 224.579C256.539 224.591 255.922 224.332 255.482 223.867C247.186 215.104 236.657 210.762 226.072 210.2C225.408 210.165 224.794 209.844 224.389 209.317C219.997 203.598 213.002 197.081 201.94 193.444C201.077 193.161 200.457 192.389 200.408 191.483C200.291 189.342 200.192 187.151 200.092 184.905C200.051 183.994 200.01 183.073 199.967 182.143C200.39 168.724 204.236 151.705 219.005 136.047C219.712 135.297 220.86 135.181 221.727 135.74C242.487 149.12 262.296 154.734 280.718 154.001C301.709 153.167 319.567 144.146 333.73 131.501C347.822 118.918 358.505 102.559 365.567 86.1892C372.597 69.8924 376.364 52.8206 375.893 38.5025C375.554 28.2013 364.615 24.9309 358.088 28.715C351.283 32.6602 325.07 42.9405 285.849 46.6406C249.41 50.0782 228.301 63.807 217.296 80.6415C209.157 93.0925 207.233 106.231 207.805 115.852C207.844 116.509 207.596 117.15 207.12 117.604C202.351 122.155 198.347 126.833 194.991 131.552C193.937 133.036 191.58 132.737 190.954 131.028C187.255 120.934 181.955 110.098 174.293 98.4392C174.03 98.0389 173.905 97.5586 173.939 97.0808C175.576 74.1775 173.547 55.4187 167.235 40.5603C160.308 24.2524 148.555 13.4463 133.034 7.18269C117.97 1.10327 99.7118 -0.570501 79.4178 0.160061C59.0195 0.894379 35.6322 4.10702 9.86466 8.4896C3.16216 9.62958 -2.12181 16.8129 0.845084 24.3795C10.074 47.9164 30.4721 77.936 58.8458 97.9762C85.2911 116.654 119.256 126.953 157.067 114.398C158.025 114.08 159.095 114.456 159.619 115.319C176.167 142.536 177.53 163.135 178.513 183.454C178.488 185.361 178.516 187.191 178.58 188.932C178.622 190.078 177.778 191.067 176.645 191.237C162.861 193.305 152.359 200.607 146.242 207.257C145.877 207.654 145.383 207.908 144.848 207.974C132.43 209.496 122.352 215.169 115.902 223.817C110.808 230.647 108.377 238.826 108.613 247.118C108.643 248.153 107.981 249.092 106.986 249.381C85.2526 255.674 66.1478 269.503 53.3781 288.799L29.6445 324.663C26.3781 329.599 27.7315 336.248 32.6673 339.515C37.6031 342.781 44.2523 341.427 47.5186 336.492L71.2522 300.628C84.6922 280.318 107.155 267.797 131.497 267.046L205.276 264.768C211.35 264.58 216.542 269.105 217.187 275.148C217.781 280.718 214.16 285.869 208.717 287.196L141.809 303.505C136.888 304.704 133.425 309.112 133.425 314.177C133.425 321.082 139.72 326.275 146.499 324.962L185.661 317.374C217.918 311.124 247.508 295.204 270.497 271.729L298.096 243.547C302.653 238.893 310.092 238.73 314.848 243.18C319.772 247.786 319.929 255.545 315.196 260.347L237.9 338.769C228.905 347.895 216.939 353.495 204.17 354.555L105.526 362.743C94.3967 363.666 84.0083 368.694 76.3792 376.85L69.8716 383.806C65.8282 388.128 66.0543 394.91 70.3765 398.953C74.6988 402.997 81.4805 402.771 85.5239 398.448L92.0315 391.492C96.0277 387.22 101.469 384.587 107.299 384.103L205.943 375.915C223.819 374.431 240.572 366.591 253.165 353.815L330.461 275.393C343.657 262.004 343.219 240.37 329.491 227.528ZM204.614 243.344C220.184 242.863 233.718 253.268 237.585 267.907C238 269.479 239.882 270.249 241.165 269.25C246.092 265.41 250.778 261.231 255.183 256.733L262.237 249.529C263.328 248.416 262.901 246.566 261.368 246.291C258.756 245.822 256.129 245.935 253.618 246.444L249.443 247.291C247.755 247.634 246.027 246.933 245.054 245.513L242.646 241.998C236.853 233.543 228.584 230.762 220.685 231.761L216.38 232.306C214.645 232.525 212.951 231.669 212.099 230.143L209.983 226.353C207.421 221.763 202.052 213.566 187.332 212.232C172.524 210.889 162.53 220.271 160.407 223.803L158.556 226.883C157.789 228.159 156.414 228.946 154.926 228.961L151.332 228.998C141.681 229.097 136.001 232.72 133.084 236.63C131.625 238.587 130.646 240.887 130.24 243.385C130.041 244.606 131.071 245.618 132.308 245.58L204.614 243.344ZM148.476 68.3159C149.973 69.6127 152.319 68.4612 152.055 66.4989C151.127 59.6016 149.573 53.803 147.508 48.9402C142.928 38.1593 135.565 31.3171 125.013 27.0587C114.005 22.6161 99.2325 20.8942 80.1889 21.5797C65.1418 22.1214 48.0003 24.1361 28.7852 27.1192C27.3311 27.3449 26.5267 28.9272 27.2306 30.2195C36.6988 47.6022 51.9252 66.8476 71.211 80.4691C91.2946 94.6541 115.287 102.495 142.057 96.3661C143.607 96.0111 144.184 94.1396 143.109 92.9673C133.609 82.6056 122.6 74.4369 109.851 69.4127C104.344 67.2427 101.64 61.0196 103.81 55.513C105.98 50.0065 112.203 47.3016 117.709 49.4716C129.285 54.0334 139.49 60.5277 148.476 68.3159ZM242.938 119.579C241.295 120.204 241.196 122.406 242.755 123.218C256.671 130.467 269.065 133.014 279.867 132.585C294.906 131.987 308.194 125.567 319.455 115.513C330.786 105.396 339.805 91.7968 345.886 77.6997C348.821 70.897 350.995 64.1555 352.425 57.8316C352.793 56.2056 351.215 54.8512 349.636 55.3849C334.889 60.3671 313.703 65.5415 287.863 67.9793C256.143 70.9717 241.798 82.3312 235.236 92.3692C234.263 93.8585 233.433 95.3599 232.728 96.8525C231.931 98.5409 233.677 100.167 235.423 99.5056C243.546 96.4262 252.683 94.3567 262.92 93.4984C268.818 93.0039 274 97.3843 274.494 103.282C274.989 109.18 270.608 114.362 264.71 114.857C256.325 115.56 249.13 117.22 242.938 119.579Z" fill="#CFF07C"/>
<path d="M713.152 99.944L669.088 232.136C668 235.581 666.459 237.304 664.464 237.304C663.013 237.304 662.016 236.125 661.472 233.768C660.928 231.411 659.931 228.328 658.48 224.52L639.712 169.848C639.168 168.035 638.443 167.128 637.536 167.128C637.173 167.128 636.539 168.035 635.632 169.848L610.336 232.136C609.611 233.949 609.067 235.219 608.704 235.944C608.341 236.851 607.616 237.304 606.528 237.304C604.715 237.304 602.085 232.408 598.64 222.616L554.304 95.32C551.947 88.792 549.952 83.5333 548.32 79.544C546.688 75.5547 544.603 72.8347 542.064 71.384C541.157 70.84 540.069 70.568 538.8 70.568C537.712 70.3867 536.715 70.2053 535.808 70.024C534.72 69.8427 533.813 69.48 533.088 68.936C532.363 68.392 532 67.576 532 66.488C532 63.9493 533.904 62.68 537.712 62.68C538.981 62.68 541.792 63.0427 546.144 63.768C550.496 64.312 556.752 64.584 564.912 64.584C570.715 64.584 575.157 64.4027 578.24 64.04C581.323 63.496 583.136 63.224 583.68 63.224C585.856 63.224 586.944 64.4027 586.944 66.76C586.944 68.392 586.309 69.48 585.04 70.024C583.952 70.3867 582.683 70.84 581.232 71.384C579.963 71.7467 578.693 72.3813 577.424 73.288C576.336 74.0133 575.792 75.464 575.792 77.64C575.792 78.0027 575.973 79.272 576.336 81.448C576.699 83.624 577.424 86.2533 578.512 89.336L614.144 191.608C614.688 193.24 615.232 194.056 615.776 194.056C616.501 194.056 617.136 193.149 617.68 191.336L630.736 155.704C631.461 153.709 631.824 152.077 631.824 150.808C631.824 148.632 631.552 146.819 631.008 145.368L609.792 83.624C607.253 76.008 604.261 71.656 600.816 70.568C598.821 70.024 597.008 69.752 595.376 69.752C593.744 69.5707 592.928 68.4827 592.928 66.488C592.928 64.1307 594.651 62.952 598.096 62.952C601.179 62.952 605.168 63.224 610.064 63.768C614.96 64.312 621.035 64.584 628.288 64.584C632.459 64.584 635.632 64.4027 637.808 64.04C639.984 63.496 641.435 63.224 642.16 63.224C643.792 63.224 644.608 64.312 644.608 66.488C644.608 68.3013 644.064 69.48 642.976 70.024C641.888 70.3867 640.709 70.7493 639.44 71.112C638.352 71.4747 637.264 72.1093 636.176 73.016C635.088 73.7413 634.544 75.192 634.544 77.368C634.544 78.8187 634.725 80.632 635.088 82.808C635.632 84.8027 636.357 87.0693 637.264 89.608L644.608 111.368C645.333 113.725 646.059 114.904 646.784 114.904C647.328 114.904 648.144 113.635 649.232 111.096L659.84 83.624C660.203 82.7173 660.475 81.5387 660.656 80.088C660.837 78.6373 660.928 77.1867 660.928 75.736C660.928 74.104 660.384 72.9253 659.296 72.2C658.389 71.4747 657.301 70.9307 656.032 70.568C654.763 70.024 653.584 69.5707 652.496 69.208C651.589 68.664 651.136 67.6667 651.136 66.216C651.136 63.8587 652.133 62.68 654.128 62.68C655.216 62.68 656.939 62.952 659.296 63.496C661.835 63.8587 665.099 64.04 669.088 64.04C673.44 64.04 676.976 63.8587 679.696 63.496C682.416 63.1333 684.411 62.952 685.68 62.952C688.581 62.952 690.032 64.04 690.032 66.216C690.032 67.6667 689.669 68.664 688.944 69.208C688.219 69.5707 687.312 69.8427 686.224 70.024C685.136 70.024 683.957 70.1147 682.688 70.296C681.419 70.296 680.24 70.568 679.152 71.112C677.157 72.0187 675.435 73.7413 673.984 76.28C672.715 78.6373 671.355 81.6293 669.904 85.256L653.04 126.6C652.677 127.507 652.315 128.413 651.952 129.32C651.589 130.045 651.408 130.861 651.408 131.768C651.408 132.493 651.589 133.4 651.952 134.488L670.448 191.608C670.992 193.24 671.627 194.056 672.352 194.056C673.259 194.056 673.984 193.149 674.528 191.336L705.264 95.048C706.352 91.4213 707.168 87.976 707.712 84.712C708.256 81.448 708.528 79.0907 708.528 77.64C708.528 74.92 707.984 73.1067 706.896 72.2C705.808 71.2933 704.539 70.6587 703.088 70.296C701.819 69.9333 700.64 69.5707 699.552 69.208C698.464 68.664 697.92 67.576 697.92 65.944C697.92 63.5867 698.736 62.408 700.368 62.408C701.275 62.408 703.088 62.68 705.808 63.224C708.709 63.768 712.699 64.04 717.776 64.04C722.672 64.04 726.571 63.8587 729.472 63.496C732.373 63.1333 734.368 62.952 735.456 62.952C738.357 62.952 739.808 64.04 739.808 66.216C739.808 67.848 739.355 68.8453 738.448 69.208C737.541 69.5707 736.363 69.8427 734.912 70.024C733.461 70.2053 731.829 70.568 730.016 71.112C728.384 71.4747 726.752 72.5627 725.12 74.376C723.669 75.8267 721.856 78.728 719.68 83.08C717.685 87.432 715.509 93.0533 713.152 99.944Z" fill="white"/>
<path d="M770.869 68.664V125.512C770.869 127.869 771.05 129.048 771.413 129.048C771.957 129.048 772.682 128.504 773.589 127.416L776.309 123.88C779.754 119.347 783.834 115.811 788.549 113.272C793.264 110.552 798.16 109.192 803.237 109.192C814.117 109.192 822.549 112.909 828.533 120.344C834.698 127.779 837.781 138.387 837.781 152.168V213.096C837.781 215.997 837.962 218.264 838.325 219.896C838.688 221.528 839.594 222.797 841.045 223.704C842.496 224.792 843.765 225.517 844.853 225.88C845.941 226.061 846.848 226.333 847.573 226.696C848.48 226.877 849.114 227.24 849.477 227.784C850.021 228.328 850.293 229.325 850.293 230.776C850.293 233.315 848.933 234.584 846.213 234.584C844.218 234.584 841.498 234.312 838.053 233.768C834.789 233.224 830.89 232.952 826.357 232.952C821.642 232.952 817.381 233.224 813.573 233.768C809.946 234.312 806.864 234.584 804.325 234.584C801.061 234.584 799.429 233.133 799.429 230.232C799.429 228.963 799.701 228.056 800.245 227.512C800.789 226.968 801.514 226.605 802.421 226.424C803.328 226.243 804.325 226.061 805.413 225.88C806.682 225.699 807.952 225.336 809.221 224.792C811.941 223.523 813.573 222.072 814.117 220.44C814.661 218.808 814.933 216.36 814.933 213.096V158.152C814.933 136.211 807.77 125.24 793.445 125.24C786.917 125.24 781.477 127.597 777.125 132.312C772.954 137.027 770.869 144.28 770.869 154.072V213.096C770.869 215.816 771.141 218.083 771.685 219.896C772.229 221.709 773.317 223.16 774.949 224.248C776.218 225.155 777.488 225.699 778.757 225.88C780.026 225.88 781.114 226.061 782.021 226.424C783.109 226.605 783.925 226.968 784.469 227.512C785.194 228.056 785.557 229.144 785.557 230.776C785.557 233.315 784.016 234.584 780.933 234.584C779.12 234.584 776.4 234.312 772.773 233.768C769.146 233.224 764.704 232.952 759.445 232.952C754.186 232.952 749.744 233.224 746.117 233.768C742.49 234.312 739.589 234.584 737.413 234.584C734.149 234.584 732.517 233.133 732.517 230.232C732.517 228.963 732.789 228.147 733.333 227.784C733.877 227.24 734.512 226.877 735.237 226.696C736.144 226.515 737.141 226.333 738.229 226.152C739.498 225.971 740.858 225.608 742.309 225.064C745.21 223.976 746.842 222.616 747.205 220.984C747.749 219.171 748.021 216.541 748.021 213.096V77.368C748.021 73.3787 747.386 70.568 746.117 68.936C744.848 67.304 743.488 66.216 742.037 65.672C740.586 64.9467 739.226 64.4933 737.957 64.312C736.688 63.9493 736.053 63.0427 736.053 61.592C736.053 59.5973 737.232 58.328 739.589 57.784C742.128 57.0587 745.12 56.0613 748.565 54.792C754.912 52.4347 759.536 50.2587 762.437 48.264C765.52 46.088 767.514 45 768.421 45C769.872 45 770.778 45.4533 771.141 46.36C771.504 47.2667 771.685 48.536 771.685 50.168C771.685 52.7067 771.504 55.5173 771.141 58.6C770.96 61.6827 770.869 65.0373 770.869 68.664Z" fill="white"/>
<path d="M862.212 173.928C862.212 164.136 863.572 155.251 866.292 147.272C869.012 139.293 872.911 132.493 877.988 126.872C883.066 121.251 889.14 116.899 896.212 113.816C903.284 110.733 911.172 109.192 919.876 109.192C928.218 109.192 935.834 110.824 942.724 114.088C949.615 117.171 955.418 121.613 960.132 127.416C965.028 133.037 968.746 139.837 971.284 147.816C974.004 155.795 975.364 164.68 975.364 174.472C975.364 184.083 974.004 192.877 971.284 200.856C968.564 208.835 964.666 215.635 959.588 221.256C954.692 226.877 948.618 231.229 941.364 234.312C934.111 237.395 925.951 238.936 916.884 238.936C908.724 238.936 901.29 237.304 894.58 234.04C887.871 230.957 882.068 226.605 877.172 220.984C872.458 215.181 868.74 208.291 866.02 200.312C863.482 192.333 862.212 183.539 862.212 173.928ZM918.788 116.808C908.452 116.808 900.474 121.432 894.852 130.68C889.231 139.928 886.42 153.075 886.42 170.12C886.42 189.341 889.412 204.392 895.396 215.272C901.562 225.971 909.54 231.32 919.332 231.32C929.306 231.32 937.103 226.696 942.724 217.448C948.527 208.019 951.428 194.872 951.428 178.008C951.428 158.787 948.346 143.827 942.18 133.128C936.196 122.248 928.399 116.808 918.788 116.808Z" fill="white"/>
<path d="M1024.01 68.664V213.096C1024.01 219.08 1025.73 222.888 1029.18 224.52C1030.63 225.245 1032.08 225.699 1033.53 225.88C1034.98 225.88 1036.25 225.971 1037.34 226.152C1038.61 226.333 1039.6 226.787 1040.33 227.512C1041.06 228.056 1041.42 229.144 1041.42 230.776C1041.42 233.315 1039.6 234.584 1035.98 234.584C1032.9 234.584 1029.36 234.312 1025.37 233.768C1021.38 233.224 1017.12 232.952 1012.59 232.952C1007.87 232.952 1003.61 233.224 999.802 233.768C996.175 234.312 993.092 234.584 990.554 234.584C987.29 234.584 985.658 233.133 985.658 230.232C985.658 227.693 986.564 226.424 988.378 226.424C990.372 226.424 992.82 225.88 995.722 224.792C998.26 223.885 999.802 222.707 1000.35 221.256C1000.89 219.624 1001.16 217.448 1001.16 214.728V73.288C1001.16 70.9307 1000.53 69.208 999.258 68.12C998.17 67.032 996.81 66.216 995.178 65.672C993.727 65.128 992.367 64.584 991.098 64.04C990.01 63.496 989.466 62.68 989.466 61.592C989.466 59.5973 990.644 58.328 993.002 57.784C995.54 57.0587 998.442 56.0613 1001.71 54.792C1008.05 52.4347 1012.68 50.2587 1015.58 48.264C1018.66 46.088 1020.66 45 1021.56 45C1023.01 45 1023.92 45.4533 1024.28 46.36C1024.64 47.2667 1024.83 48.536 1024.83 50.168C1024.83 52.5253 1024.64 55.2453 1024.28 58.328C1024.1 61.4107 1024.01 64.856 1024.01 68.664Z" fill="white"/>
<path d="M1097.07 148.632C1105.95 148.632 1112.39 147.635 1116.38 145.64C1120.55 143.645 1122.63 139.656 1122.63 133.672C1122.63 129.139 1120.73 124.968 1116.92 121.16C1113.29 117.352 1108.58 115.448 1102.78 115.448C1096.43 115.448 1090.9 117.896 1086.19 122.792C1081.47 127.688 1078.39 133.853 1076.94 141.288L1076.12 145.64V146.184C1076.12 147.816 1077.21 148.632 1079.39 148.632H1097.07ZM1137.32 157.064H1077.21C1075.76 157.064 1074.85 157.336 1074.49 157.88C1074.13 158.424 1073.95 159.603 1073.95 161.416V167.944C1073.95 184.808 1077.48 198.136 1084.55 207.928C1091.81 217.72 1101.15 222.616 1112.57 222.616C1117.65 222.616 1122 221.8 1125.63 220.168C1129.43 218.536 1132.52 216.723 1134.87 214.728C1137.41 212.733 1139.32 210.92 1140.59 209.288C1142.04 207.656 1143.03 206.84 1143.58 206.84C1145.03 206.84 1145.75 207.837 1145.75 209.832C1145.75 211.827 1144.67 214.456 1142.49 217.72C1140.31 220.984 1137.14 224.248 1132.97 227.512C1128.98 230.595 1124.17 233.315 1118.55 235.672C1112.93 238.029 1106.59 239.208 1099.51 239.208C1092.08 239.208 1085.28 237.667 1079.11 234.584C1073.13 231.683 1067.96 227.421 1063.61 221.8C1059.26 216.179 1055.9 209.379 1053.55 201.4C1051.19 193.421 1050.01 184.445 1050.01 174.472C1050.01 164.499 1051.28 155.523 1053.82 147.544C1056.54 139.384 1060.25 132.493 1064.97 126.872C1069.68 121.251 1075.21 116.899 1081.56 113.816C1088.09 110.733 1095.16 109.192 1102.78 109.192C1109.31 109.192 1115.29 110.371 1120.73 112.728C1126.17 114.904 1130.79 117.896 1134.6 121.704C1138.41 125.512 1141.31 129.955 1143.31 135.032C1145.48 140.109 1146.57 145.549 1146.57 151.352C1146.57 153.709 1145.84 155.251 1144.39 155.976C1142.94 156.701 1140.59 157.064 1137.32 157.064Z" fill="white"/>
<path d="M1262.98 83.624V133.128C1262.98 135.485 1264.16 136.664 1266.51 136.664H1328.26C1330.43 136.664 1331.52 135.395 1331.52 132.856V83.624C1331.52 79.272 1331.25 76.3707 1330.71 74.92C1330.16 73.288 1328.53 72.0187 1325.81 71.112C1324 70.568 1322.27 70.296 1320.64 70.296C1319.19 70.296 1317.83 70.2053 1316.56 70.024C1315.47 69.8427 1314.57 69.5707 1313.84 69.208C1313.3 68.664 1313.03 67.6667 1313.03 66.216C1313.03 63.6773 1314.39 62.408 1317.11 62.408C1318.56 62.408 1321.46 62.7707 1325.81 63.496C1330.16 64.2213 1336.24 64.584 1344.03 64.584C1351.83 64.584 1357.91 64.2213 1362.26 63.496C1366.61 62.7707 1369.51 62.408 1370.96 62.408C1373.68 62.408 1375.04 63.6773 1375.04 66.216C1375.04 67.4853 1374.77 68.392 1374.23 68.936C1373.68 69.2987 1372.87 69.5707 1371.78 69.752C1370.69 69.9333 1369.42 70.1147 1367.97 70.296C1366.52 70.296 1364.98 70.4773 1363.35 70.84C1359.9 71.5653 1357.82 72.8347 1357.09 74.648C1356.55 76.28 1356.27 79.272 1356.27 83.624V208.2C1356.27 211.101 1356.27 213.459 1356.27 215.272C1356.46 217.085 1356.73 218.627 1357.09 219.896C1357.63 220.984 1358.36 221.891 1359.27 222.616C1360.17 223.341 1361.53 223.976 1363.35 224.52C1364.98 225.064 1366.52 225.336 1367.97 225.336C1369.42 225.336 1370.69 225.427 1371.78 225.608C1372.87 225.789 1373.77 226.243 1374.5 226.968C1375.22 227.512 1375.59 228.509 1375.59 229.96C1375.59 232.499 1373.59 233.768 1369.6 233.768C1367.97 233.768 1365.07 233.496 1360.9 232.952C1356.73 232.408 1351.11 232.136 1344.03 232.136C1336.96 232.136 1331.25 232.408 1326.9 232.952C1322.73 233.496 1319.83 233.768 1318.19 233.768C1314.21 233.768 1312.21 232.317 1312.21 229.416C1312.21 228.147 1312.48 227.24 1313.03 226.696C1313.75 226.152 1314.57 225.789 1315.47 225.608C1316.56 225.427 1317.74 225.336 1319.01 225.336C1320.28 225.336 1321.55 225.155 1322.82 224.792C1324.99 224.248 1326.63 223.613 1327.71 222.888C1328.98 222.163 1329.89 221.256 1330.43 220.168C1330.98 218.899 1331.25 217.357 1331.25 215.544C1331.43 213.549 1331.52 211.101 1331.52 208.2V149.992C1331.52 147.453 1330.43 146.184 1328.26 146.184H1266.51C1264.16 146.184 1262.98 147.453 1262.98 149.992V208.2C1262.98 211.101 1262.98 213.459 1262.98 215.272C1263.16 217.085 1263.43 218.627 1263.79 219.896C1264.34 220.984 1265.06 221.891 1265.97 222.616C1267.06 223.341 1268.51 223.976 1270.32 224.52C1271.95 225.064 1273.5 225.336 1274.95 225.336C1276.4 225.336 1277.67 225.427 1278.75 225.608C1279.84 225.789 1280.66 226.243 1281.2 226.968C1281.93 227.512 1282.29 228.509 1282.29 229.96C1282.29 232.499 1280.39 233.768 1276.58 233.768C1274.95 233.768 1271.95 233.496 1267.6 232.952C1263.43 232.408 1257.81 232.136 1250.74 232.136C1243.67 232.136 1237.95 232.408 1233.6 232.952C1229.43 233.496 1226.53 233.768 1224.9 233.768C1221.09 233.768 1219.19 232.317 1219.19 229.416C1219.19 228.147 1219.46 227.24 1220 226.696C1220.73 226.152 1221.54 225.789 1222.45 225.608C1223.54 225.427 1224.72 225.336 1225.99 225.336C1227.26 225.336 1228.53 225.155 1229.79 224.792C1231.97 224.248 1233.6 223.613 1234.69 222.888C1235.96 222.163 1236.87 221.256 1237.41 220.168C1237.95 218.899 1238.23 217.357 1238.23 215.544C1238.41 213.549 1238.5 211.101 1238.5 208.2V83.624C1238.5 79.272 1238.14 76.3707 1237.41 74.92C1236.87 73.288 1235.23 72.0187 1232.51 71.112C1230.7 70.568 1228.98 70.296 1227.35 70.296C1225.9 70.296 1224.54 70.2053 1223.27 70.024C1222.18 69.8427 1221.27 69.5707 1220.55 69.208C1220 68.664 1219.73 67.6667 1219.73 66.216C1219.73 63.6773 1221.09 62.408 1223.81 62.408C1225.26 62.408 1228.16 62.7707 1232.51 63.496C1236.87 64.2213 1242.94 64.584 1250.74 64.584C1258.54 64.584 1264.61 64.2213 1268.96 63.496C1273.31 62.7707 1276.22 62.408 1277.67 62.408C1280.39 62.408 1281.75 63.6773 1281.75 66.216C1281.75 67.4853 1281.47 68.392 1280.93 68.936C1280.39 69.2987 1279.57 69.5707 1278.48 69.752C1277.39 69.9333 1276.13 70.1147 1274.67 70.296C1273.22 70.296 1271.68 70.4773 1270.05 70.84C1266.61 71.5653 1264.52 72.8347 1263.79 74.648C1263.25 76.28 1262.98 79.272 1262.98 83.624Z" fill="white"/>
<path d="M1464.87 140.2V203.304C1464.87 209.107 1465.23 213.459 1465.95 216.36C1466.68 219.261 1468.58 220.712 1471.67 220.712C1473.66 220.712 1475.47 219.805 1477.11 217.992C1478.74 216.179 1480.37 215.272 1482 215.272C1484.18 215.272 1485.27 216.632 1485.27 219.352C1485.27 220.803 1484.45 222.616 1482.82 224.792C1481.19 226.787 1479.19 228.781 1476.83 230.776C1474.66 232.771 1472.21 234.493 1469.49 235.944C1466.95 237.395 1464.59 238.12 1462.42 238.12C1457.7 238.12 1453.81 236.579 1450.72 233.496C1447.64 230.413 1445.1 225.789 1443.11 219.624H1441.47L1435.76 224.52C1431.05 228.509 1426.61 231.864 1422.43 234.584C1418.26 237.485 1413.64 238.936 1408.56 238.936C1402.76 238.936 1398.05 237.032 1394.42 233.224C1390.97 229.235 1389.25 223.795 1389.25 216.904C1389.25 210.92 1390.25 205.661 1392.24 201.128C1394.24 196.595 1397.14 192.515 1400.95 188.888C1404.75 185.08 1409.29 181.544 1414.55 178.28C1419.99 175.016 1425.97 171.752 1432.5 168.488L1439.3 164.952C1440.75 164.227 1441.57 163.501 1441.75 162.776C1442.11 161.869 1442.29 160.419 1442.29 158.424V139.112C1442.29 131.496 1441.66 125.965 1440.39 122.52C1439.3 119.075 1436.4 117.352 1431.68 117.352C1426.97 117.352 1423.25 118.984 1420.53 122.248C1417.81 125.331 1415.18 129.773 1412.64 135.576C1410.65 140.109 1408.38 144.008 1405.84 147.272C1403.49 150.355 1399.59 151.896 1394.15 151.896C1392.7 151.896 1391.43 151.443 1390.34 150.536C1389.43 149.629 1388.98 148.451 1388.98 147C1388.98 143.011 1390.16 138.749 1392.51 134.216C1395.05 129.683 1398.5 125.603 1402.85 121.976C1407.38 118.168 1412.64 115.085 1418.63 112.728C1424.79 110.189 1431.41 108.92 1438.48 108.92C1444.29 108.92 1448.91 109.645 1452.35 111.096C1455.98 112.365 1458.7 114.36 1460.51 117.08C1462.33 119.619 1463.51 122.883 1464.05 126.872C1464.59 130.68 1464.87 135.123 1464.87 140.2ZM1442.56 175.832C1442.56 173.656 1442.11 172.568 1441.2 172.568C1440.66 172.568 1439.75 172.931 1438.48 173.656L1429.51 178.008C1418.81 183.448 1413.46 192.515 1413.46 205.208C1413.46 210.467 1414.37 214.456 1416.18 217.176C1418.17 219.896 1420.71 221.256 1423.79 221.256C1425.97 221.256 1428.15 220.712 1430.32 219.624C1432.5 218.355 1434.49 216.723 1436.31 214.728C1438.12 212.552 1439.57 210.013 1440.66 207.112C1441.93 204.211 1442.56 200.947 1442.56 197.32V175.832Z" fill="white"/>
<path d="M1525.76 114.088V124.696C1525.76 126.328 1526.03 127.144 1526.57 127.144C1526.93 127.144 1527.75 126.509 1529.02 125.24L1534.46 119.256C1540.26 112.365 1546.43 108.92 1552.96 108.92C1557.85 108.92 1562.02 110.733 1565.47 114.36C1568.91 117.987 1570.64 122.52 1570.64 127.96C1570.64 131.949 1569.37 135.213 1566.83 137.752C1564.47 140.291 1561.57 141.56 1558.12 141.56C1555.4 141.56 1553.05 140.925 1551.05 139.656C1549.06 138.205 1547.24 136.664 1545.61 135.032C1543.98 133.4 1542.44 131.949 1540.99 130.68C1539.54 129.229 1538.09 128.504 1536.64 128.504C1529.93 128.504 1526.57 137.027 1526.57 154.072V213.096C1526.57 216.179 1526.93 218.536 1527.66 220.168C1528.39 221.619 1529.84 222.797 1532.01 223.704C1534.19 224.792 1536.18 225.517 1538 225.88C1539.81 226.061 1541.26 226.333 1542.35 226.696C1543.62 226.877 1544.61 227.24 1545.34 227.784C1546.07 228.328 1546.43 229.325 1546.43 230.776C1546.43 231.864 1545.88 232.861 1544.8 233.768C1543.89 234.493 1542.44 234.856 1540.44 234.856C1536.82 234.856 1532.83 234.493 1528.48 233.768C1524.31 233.224 1519.86 232.952 1515.15 232.952C1510.8 232.952 1506.72 233.224 1502.91 233.768C1499.28 234.312 1496.02 234.584 1493.12 234.584C1489.85 234.584 1488.22 233.133 1488.22 230.232C1488.22 228.963 1488.49 228.147 1489.04 227.784C1489.58 227.24 1490.31 226.877 1491.21 226.696C1492.12 226.333 1493.21 226.061 1494.48 225.88C1495.75 225.699 1497.11 225.245 1498.56 224.52C1501.09 223.251 1502.55 221.981 1502.91 220.712C1503.45 219.261 1503.72 217.267 1503.72 214.728V145.096C1503.72 141.832 1503.09 139.656 1501.82 138.568C1500.73 137.48 1499.46 136.755 1498.01 136.392C1496.74 136.029 1495.47 135.757 1494.2 135.576C1493.12 135.213 1492.57 134.216 1492.57 132.584C1492.57 130.589 1493.75 129.139 1496.11 128.232C1498.47 127.144 1501.55 125.331 1505.36 122.792C1510.61 119.165 1514.42 115.901 1516.78 113C1519.32 109.917 1521.4 108.376 1523.04 108.376C1524.85 108.376 1525.76 110.28 1525.76 114.088Z" fill="white"/>
<path d="M1614.7 143.736L1631.02 196.232C1631.2 197.32 1631.75 197.864 1632.65 197.864C1633.2 197.864 1633.65 197.32 1634.01 196.232L1650.88 145.64C1652.15 141.832 1652.96 138.568 1653.33 135.848C1653.87 133.128 1654.14 131.133 1654.14 129.864C1654.14 126.963 1653.24 125.059 1651.42 124.152C1649.79 123.064 1647.98 122.339 1645.98 121.976C1643.99 121.432 1642.08 120.979 1640.27 120.616C1638.64 120.253 1637.82 119.165 1637.82 117.352C1637.82 115.72 1638.09 114.723 1638.64 114.36C1639.36 113.997 1640.63 113.816 1642.45 113.816C1643.9 113.816 1646.44 113.997 1650.06 114.36C1653.69 114.723 1658.31 114.904 1663.93 114.904C1668.65 114.904 1672.19 114.813 1674.54 114.632C1677.08 114.269 1678.71 114.088 1679.44 114.088C1681.07 114.088 1682.07 114.269 1682.43 114.632C1682.97 114.995 1683.25 115.901 1683.25 117.352C1683.25 119.891 1682.34 121.16 1680.53 121.16C1678.71 121.16 1676.72 121.613 1674.54 122.52C1671.46 123.789 1668.92 126.056 1666.93 129.32C1665.11 132.584 1662.94 137.571 1660.4 144.28L1628.85 231.048C1627.4 235.037 1625.67 237.032 1623.68 237.032C1622.05 237.032 1621.05 236.488 1620.69 235.4C1620.32 234.312 1619.78 232.771 1619.05 230.776L1589.41 139.384C1587.59 133.763 1585.6 129.773 1583.42 127.416C1581.43 124.877 1579.52 123.155 1577.71 122.248C1575.9 121.341 1574.45 120.707 1573.36 120.344C1572.09 119.981 1571.45 118.984 1571.45 117.352C1571.45 114.995 1572.72 113.816 1575.26 113.816C1576.53 113.816 1578.89 114.088 1582.33 114.632C1585.78 115.176 1590.49 115.448 1596.48 115.448C1604.09 115.448 1609.9 115.267 1613.89 114.904C1617.88 114.36 1620.32 114.088 1621.23 114.088C1623.41 114.088 1624.49 115.085 1624.49 117.08C1624.49 118.712 1623.77 119.8 1622.32 120.344C1621.05 120.707 1619.6 121.069 1617.97 121.432C1616.33 121.795 1614.79 122.339 1613.34 123.064C1612.07 123.789 1611.44 125.149 1611.44 127.144C1611.44 128.413 1611.62 130.499 1611.98 133.4C1612.53 136.12 1613.43 139.565 1614.7 143.736Z" fill="white"/>
<path d="M1729.25 148.632C1738.14 148.632 1744.58 147.635 1748.56 145.64C1752.74 143.645 1754.82 139.656 1754.82 133.672C1754.82 129.139 1752.92 124.968 1749.11 121.16C1745.48 117.352 1740.77 115.448 1734.96 115.448C1728.62 115.448 1723.09 117.896 1718.37 122.792C1713.66 127.688 1710.58 133.853 1709.12 141.288L1708.31 145.64V146.184C1708.31 147.816 1709.4 148.632 1711.57 148.632H1729.25ZM1769.51 157.064H1709.4C1707.95 157.064 1707.04 157.336 1706.68 157.88C1706.31 158.424 1706.13 159.603 1706.13 161.416V167.944C1706.13 184.808 1709.67 198.136 1716.74 207.928C1723.99 217.72 1733.33 222.616 1744.76 222.616C1749.83 222.616 1754.19 221.8 1757.81 220.168C1761.62 218.536 1764.7 216.723 1767.06 214.728C1769.6 212.733 1771.5 210.92 1772.77 209.288C1774.22 207.656 1775.22 206.84 1775.76 206.84C1777.22 206.84 1777.94 207.837 1777.94 209.832C1777.94 211.827 1776.85 214.456 1774.68 217.72C1772.5 220.984 1769.33 224.248 1765.16 227.512C1761.17 230.595 1756.36 233.315 1750.74 235.672C1745.12 238.029 1738.77 239.208 1731.7 239.208C1724.27 239.208 1717.47 237.667 1711.3 234.584C1705.32 231.683 1700.15 227.421 1695.8 221.8C1691.44 216.179 1688.09 209.379 1685.73 201.4C1683.38 193.421 1682.2 184.445 1682.2 174.472C1682.2 164.499 1683.47 155.523 1686 147.544C1688.72 139.384 1692.44 132.493 1697.16 126.872C1701.87 121.251 1707.4 116.899 1713.75 113.816C1720.28 110.733 1727.35 109.192 1734.96 109.192C1741.49 109.192 1747.48 110.371 1752.92 112.728C1758.36 114.904 1762.98 117.896 1766.79 121.704C1770.6 125.512 1773.5 129.955 1775.49 135.032C1777.67 140.109 1778.76 145.549 1778.76 151.352C1778.76 153.709 1778.03 155.251 1776.58 155.976C1775.13 156.701 1772.77 157.064 1769.51 157.064Z" fill="white"/>
<path d="M1832.4 109.192C1843.83 109.192 1851.62 110.28 1855.79 112.456C1859.96 114.632 1862.05 118.077 1862.05 122.792C1862.05 129.139 1861.78 133.853 1861.23 136.936C1860.69 139.837 1859.51 141.288 1857.7 141.288C1855.7 141.288 1854.52 140.019 1854.16 137.48C1853.8 134.941 1852.53 131.768 1850.35 127.96C1845.82 120.163 1839.84 116.264 1832.4 116.264C1827.14 116.264 1822.88 117.805 1819.62 120.888C1816.54 123.789 1814.99 127.597 1814.99 132.312C1814.99 135.395 1815.63 138.024 1816.9 140.2C1818.17 142.195 1819.98 144.099 1822.34 145.912C1824.7 147.725 1827.51 149.539 1830.77 151.352C1834.22 152.984 1838.02 154.888 1842.19 157.064C1851.08 161.779 1857.61 167.128 1861.78 173.112C1865.95 178.915 1868.03 186.259 1868.03 195.144C1868.03 202.035 1866.95 208.2 1864.77 213.64C1862.78 219.08 1859.87 223.704 1856.07 227.512C1852.26 231.139 1847.72 233.949 1842.47 235.944C1837.39 237.939 1831.77 238.936 1825.6 238.936C1819.44 238.936 1813.91 238.211 1809.01 236.76C1804.11 235.491 1800.4 234.04 1797.86 232.408C1796.23 231.501 1795.23 230.323 1794.87 228.872C1794.5 227.421 1794.32 225.427 1794.32 222.888V216.088C1794.32 208.653 1794.5 203.304 1794.87 200.04C1795.23 196.595 1796.41 194.872 1798.4 194.872C1799.67 194.872 1800.58 195.325 1801.12 196.232C1801.67 197.139 1802.12 198.499 1802.48 200.312C1803.03 201.944 1803.57 204.029 1804.11 206.568C1804.84 208.925 1805.93 211.645 1807.38 214.728C1812.46 225.789 1819.71 231.32 1829.14 231.32C1834.94 231.32 1839.66 229.325 1843.28 225.336C1847.09 221.347 1848.99 215.997 1848.99 209.288C1848.99 205.843 1848.36 202.851 1847.09 200.312C1846 197.592 1844.28 195.235 1841.92 193.24C1839.75 191.064 1837.03 189.069 1833.76 187.256C1830.5 185.261 1826.87 183.176 1822.88 181C1818.35 178.643 1814.36 176.376 1810.91 174.2C1807.47 171.843 1804.57 169.395 1802.21 166.856C1799.85 164.136 1798.04 161.144 1796.77 157.88C1795.68 154.435 1795.14 150.445 1795.14 145.912C1795.14 134.669 1798.58 125.784 1805.47 119.256C1812.55 112.547 1821.52 109.192 1832.4 109.192Z" fill="white"/>
<path d="M1915.67 93.96V110.552C1915.67 112.909 1916.85 114.088 1919.2 114.088H1939.6C1941.24 114.088 1942.23 114.269 1942.6 114.632C1942.96 114.995 1943.14 115.72 1943.14 116.808V122.248C1943.14 123.699 1942.96 124.696 1942.6 125.24C1942.23 125.784 1941.24 126.056 1939.6 126.056H1918.93C1916.76 126.056 1915.67 127.235 1915.67 129.592V198.408C1915.67 206.931 1916.39 213.187 1917.84 217.176C1919.48 220.984 1922.38 222.888 1926.55 222.888C1928.54 222.888 1930.27 222.525 1931.72 221.8C1933.35 221.075 1934.8 220.259 1936.07 219.352C1937.34 218.264 1938.43 217.357 1939.33 216.632C1940.42 215.907 1941.42 215.544 1942.32 215.544C1944.14 215.544 1945.04 216.813 1945.04 219.352C1945.04 220.621 1944.23 222.344 1942.6 224.52C1940.96 226.696 1938.7 228.872 1935.8 231.048C1933.08 233.224 1929.81 235.037 1926 236.488C1922.38 238.12 1918.48 238.936 1914.31 238.936C1899.8 238.936 1892.55 227.421 1892.55 204.392V192.968L1893.64 134.488C1893.64 131.949 1893.45 129.955 1893.09 128.504C1892.73 126.872 1891.64 126.056 1889.83 126.056H1884.93C1881.67 126.056 1880.04 124.877 1880.04 122.52C1880.04 121.432 1880.49 120.435 1881.4 119.528C1882.3 118.621 1883.57 117.624 1885.2 116.536C1886.84 115.448 1888.65 114.088 1890.64 112.456C1892.82 110.824 1895.18 108.648 1897.72 105.928C1902.07 100.851 1905.24 96.4987 1907.24 92.872C1909.41 89.2453 1911.32 87.432 1912.95 87.432C1914.22 87.432 1914.94 88.0667 1915.12 89.336C1915.49 90.424 1915.67 91.9653 1915.67 93.96Z" fill="white"/>
<path d="M794.954 379.044C788.864 379.044 783.615 377.739 779.207 375.129C774.857 372.461 771.493 368.778 769.115 364.08C766.795 359.324 765.635 353.843 765.635 347.637C765.635 341.431 766.795 335.95 769.115 331.194C771.493 326.438 774.857 322.726 779.207 320.058C783.615 317.39 788.864 316.056 794.954 316.056C802.32 316.056 808.352 317.883 813.05 321.537C817.748 325.191 820.677 330.353 821.837 337.023H809.048C808.294 333.775 806.699 331.252 804.263 329.454C801.885 327.598 798.753 326.67 794.867 326.67C791.271 326.67 788.168 327.54 785.558 329.28C783.006 330.962 781.034 333.369 779.642 336.501C778.25 339.575 777.554 343.287 777.554 347.637C777.554 351.929 778.25 355.641 779.642 358.773C781.034 361.905 783.006 364.312 785.558 365.994C788.168 367.676 791.271 368.517 794.867 368.517C798.753 368.517 801.885 367.676 804.263 365.994C806.641 364.254 808.207 361.847 808.961 358.773H821.837C820.677 365.095 817.748 370.054 813.05 373.65C808.352 377.246 802.32 379.044 794.954 379.044Z" fill="#CFF07C"/>
<path d="M946.097 379.044C940.181 379.044 934.961 377.71 930.437 375.042C925.913 372.374 922.375 368.691 919.823 363.993C917.271 359.237 915.995 353.756 915.995 347.55C915.995 341.344 917.271 335.892 919.823 331.194C922.375 326.438 925.913 322.726 930.437 320.058C934.961 317.39 940.181 316.056 946.097 316.056C952.071 316.056 957.32 317.39 961.844 320.058C966.368 322.726 969.877 326.438 972.371 331.194C974.923 335.892 976.199 341.344 976.199 347.55C976.199 353.756 974.923 359.237 972.371 363.993C969.877 368.691 966.368 372.374 961.844 375.042C957.32 377.71 952.071 379.044 946.097 379.044ZM946.097 368.517C949.809 368.517 952.999 367.676 955.667 365.994C958.393 364.254 960.51 361.818 962.018 358.686C963.526 355.554 964.28 351.842 964.28 347.55C964.28 343.2 963.526 339.488 962.018 336.414C960.51 333.282 958.393 330.875 955.667 329.193C952.999 327.511 949.809 326.67 946.097 326.67C942.443 326.67 939.253 327.511 936.527 329.193C933.801 330.875 931.684 333.282 930.176 336.414C928.668 339.488 927.914 343.2 927.914 347.55C927.914 351.842 928.668 355.554 930.176 358.686C931.684 361.818 933.801 364.254 936.527 365.994C939.253 367.676 942.443 368.517 946.097 368.517Z" fill="#CFF07C"/>
<path d="M1072.35 378V317.1H1086.36L1104.98 355.119L1123.42 317.1H1137.43V378H1125.68V337.11L1109.59 369.474H1100.28L1084.1 337.11V378H1072.35Z" fill="#CFF07C"/>
<path d="M1235.54 378V317.1H1258.33C1263.26 317.1 1267.35 317.941 1270.6 319.623C1273.85 321.305 1276.26 323.567 1277.82 326.409C1279.39 329.251 1280.17 332.499 1280.17 336.153C1280.17 339.517 1279.42 342.62 1277.91 345.462C1276.4 348.304 1274.02 350.624 1270.77 352.422C1267.53 354.162 1263.38 355.032 1258.33 355.032H1247.28V378H1235.54ZM1247.28 345.549H1257.64C1261.41 345.549 1264.1 344.708 1265.73 343.026C1267.41 341.286 1268.25 338.995 1268.25 336.153C1268.25 333.137 1267.41 330.817 1265.73 329.193C1264.1 327.511 1261.41 326.67 1257.64 326.67H1247.28V345.549Z" fill="#CFF07C"/>
<path d="M1364.73 378L1387.01 317.1H1400.32L1422.5 378H1410.06L1393.62 330.498L1377.09 378H1364.73ZM1374.56 364.167L1377.7 355.032H1408.67L1411.71 364.167H1374.56Z" fill="#CFF07C"/>
<path d="M1516.63 378V317.1H1528.38L1556.39 359.121V317.1H1568.14V378H1556.39L1528.38 336.066V378H1516.63Z" fill="#CFF07C"/>
<path d="M1681.89 378V356.598L1661.36 317.1H1674.67L1689.03 347.202H1686.68L1700.95 317.1H1714.17L1693.64 356.598V378H1681.89Z" fill="#CFF07C"/>
</svg>
