<svg width="1414" height="335" viewBox="0 0 1414 335" fill="none" xmlns="http://www.w3.org/2000/svg">
<path d="M181.152 54.944L137.088 187.136C136 190.581 134.459 192.304 132.464 192.304C131.013 192.304 130.016 191.125 129.472 188.768C128.928 186.411 127.931 183.328 126.48 179.52L107.712 124.848C107.168 123.035 106.443 122.128 105.536 122.128C105.173 122.128 104.539 123.035 103.632 124.848L78.336 187.136C77.6107 188.949 77.0667 190.219 76.704 190.944C76.3413 191.851 75.616 192.304 74.528 192.304C72.7147 192.304 70.0853 187.408 66.64 177.616L22.304 50.32C19.9467 43.792 17.952 38.5333 16.32 34.544C14.688 30.5547 12.6027 27.8347 10.064 26.384C9.15733 25.84 8.06933 25.568 6.8 25.568C5.712 25.3867 4.71467 25.2053 3.808 25.024C2.72 24.8427 1.81333 24.48 1.088 23.936C0.362667 23.392 0 22.576 0 21.488C0 18.9493 1.904 17.68 5.712 17.68C6.98133 17.68 9.792 18.0427 14.144 18.768C18.496 19.312 24.752 19.584 32.912 19.584C38.7147 19.584 43.1573 19.4027 46.24 19.04C49.3227 18.496 51.136 18.224 51.68 18.224C53.856 18.224 54.944 19.4027 54.944 21.76C54.944 23.392 54.3093 24.48 53.04 25.024C51.952 25.3867 50.6827 25.84 49.232 26.384C47.9627 26.7467 46.6933 27.3813 45.424 28.288C44.336 29.0133 43.792 30.464 43.792 32.64C43.792 33.0027 43.9733 34.272 44.336 36.448C44.6987 38.624 45.424 41.2533 46.512 44.336L82.144 146.608C82.688 148.24 83.232 149.056 83.776 149.056C84.5013 149.056 85.136 148.149 85.68 146.336L98.736 110.704C99.4613 108.709 99.824 107.077 99.824 105.808C99.824 103.632 99.552 101.819 99.008 100.368L77.792 38.624C75.2533 31.008 72.2613 26.656 68.816 25.568C66.8213 25.024 65.008 24.752 63.376 24.752C61.744 24.5707 60.928 23.4827 60.928 21.488C60.928 19.1307 62.6507 17.952 66.096 17.952C69.1787 17.952 73.168 18.224 78.064 18.768C82.96 19.312 89.0347 19.584 96.288 19.584C100.459 19.584 103.632 19.4027 105.808 19.04C107.984 18.496 109.435 18.224 110.16 18.224C111.792 18.224 112.608 19.312 112.608 21.488C112.608 23.3013 112.064 24.48 110.976 25.024C109.888 25.3867 108.709 25.7493 107.44 26.112C106.352 26.4747 105.264 27.1093 104.176 28.016C103.088 28.7413 102.544 30.192 102.544 32.368C102.544 33.8187 102.725 35.632 103.088 37.808C103.632 39.8027 104.357 42.0693 105.264 44.608L112.608 66.368C113.333 68.7253 114.059 69.904 114.784 69.904C115.328 69.904 116.144 68.6347 117.232 66.096L127.84 38.624C128.203 37.7173 128.475 36.5387 128.656 35.088C128.837 33.6373 128.928 32.1867 128.928 30.736C128.928 29.104 128.384 27.9253 127.296 27.2C126.389 26.4747 125.301 25.9307 124.032 25.568C122.763 25.024 121.584 24.5707 120.496 24.208C119.589 23.664 119.136 22.6667 119.136 21.216C119.136 18.8587 120.133 17.68 122.128 17.68C123.216 17.68 124.939 17.952 127.296 18.496C129.835 18.8587 133.099 19.04 137.088 19.04C141.44 19.04 144.976 18.8587 147.696 18.496C150.416 18.1333 152.411 17.952 153.68 17.952C156.581 17.952 158.032 19.04 158.032 21.216C158.032 22.6667 157.669 23.664 156.944 24.208C156.219 24.5707 155.312 24.8427 154.224 25.024C153.136 25.024 151.957 25.1147 150.688 25.296C149.419 25.296 148.24 25.568 147.152 26.112C145.157 27.0187 143.435 28.7413 141.984 31.28C140.715 33.6373 139.355 36.6293 137.904 40.256L121.04 81.6C120.677 82.5067 120.315 83.4133 119.952 84.32C119.589 85.0453 119.408 85.8613 119.408 86.768C119.408 87.4933 119.589 88.4 119.952 89.488L138.448 146.608C138.992 148.24 139.627 149.056 140.352 149.056C141.259 149.056 141.984 148.149 142.528 146.336L173.264 50.048C174.352 46.4213 175.168 42.976 175.712 39.712C176.256 36.448 176.528 34.0907 176.528 32.64C176.528 29.92 175.984 28.1067 174.896 27.2C173.808 26.2933 172.539 25.6587 171.088 25.296C169.819 24.9333 168.64 24.5707 167.552 24.208C166.464 23.664 165.92 22.576 165.92 20.944C165.92 18.5867 166.736 17.408 168.368 17.408C169.275 17.408 171.088 17.68 173.808 18.224C176.709 18.768 180.699 19.04 185.776 19.04C190.672 19.04 194.571 18.8587 197.472 18.496C200.373 18.1333 202.368 17.952 203.456 17.952C206.357 17.952 207.808 19.04 207.808 21.216C207.808 22.848 207.355 23.8453 206.448 24.208C205.541 24.5707 204.363 24.8427 202.912 25.024C201.461 25.2053 199.829 25.568 198.016 26.112C196.384 26.4747 194.752 27.5627 193.12 29.376C191.669 30.8267 189.856 33.728 187.68 38.08C185.685 42.432 183.509 48.0533 181.152 54.944Z" fill="white"/>
<path d="M238.869 23.664V80.512C238.869 82.8693 239.05 84.048 239.413 84.048C239.957 84.048 240.682 83.504 241.589 82.416L244.309 78.88C247.754 74.3467 251.834 70.8107 256.549 68.272C261.264 65.552 266.16 64.192 271.237 64.192C282.117 64.192 290.549 67.9093 296.533 75.344C302.698 82.7787 305.781 93.3867 305.781 107.168V168.096C305.781 170.997 305.962 173.264 306.325 174.896C306.688 176.528 307.594 177.797 309.045 178.704C310.496 179.792 311.765 180.517 312.853 180.88C313.941 181.061 314.848 181.333 315.573 181.696C316.48 181.877 317.114 182.24 317.477 182.784C318.021 183.328 318.293 184.325 318.293 185.776C318.293 188.315 316.933 189.584 314.213 189.584C312.218 189.584 309.498 189.312 306.053 188.768C302.789 188.224 298.89 187.952 294.357 187.952C289.642 187.952 285.381 188.224 281.573 188.768C277.946 189.312 274.864 189.584 272.325 189.584C269.061 189.584 267.429 188.133 267.429 185.232C267.429 183.963 267.701 183.056 268.245 182.512C268.789 181.968 269.514 181.605 270.421 181.424C271.328 181.243 272.325 181.061 273.413 180.88C274.682 180.699 275.952 180.336 277.221 179.792C279.941 178.523 281.573 177.072 282.117 175.44C282.661 173.808 282.933 171.36 282.933 168.096V113.152C282.933 91.2107 275.77 80.24 261.445 80.24C254.917 80.24 249.477 82.5973 245.125 87.312C240.954 92.0267 238.869 99.28 238.869 109.072V168.096C238.869 170.816 239.141 173.083 239.685 174.896C240.229 176.709 241.317 178.16 242.949 179.248C244.218 180.155 245.488 180.699 246.757 180.88C248.026 180.88 249.114 181.061 250.021 181.424C251.109 181.605 251.925 181.968 252.469 182.512C253.194 183.056 253.557 184.144 253.557 185.776C253.557 188.315 252.016 189.584 248.933 189.584C247.12 189.584 244.4 189.312 240.773 188.768C237.146 188.224 232.704 187.952 227.445 187.952C222.186 187.952 217.744 188.224 214.117 188.768C210.49 189.312 207.589 189.584 205.413 189.584C202.149 189.584 200.517 188.133 200.517 185.232C200.517 183.963 200.789 183.147 201.333 182.784C201.877 182.24 202.512 181.877 203.237 181.696C204.144 181.515 205.141 181.333 206.229 181.152C207.498 180.971 208.858 180.608 210.309 180.064C213.21 178.976 214.842 177.616 215.205 175.984C215.749 174.171 216.021 171.541 216.021 168.096V32.368C216.021 28.3787 215.386 25.568 214.117 23.936C212.848 22.304 211.488 21.216 210.037 20.672C208.586 19.9467 207.226 19.4933 205.957 19.312C204.688 18.9493 204.053 18.0427 204.053 16.592C204.053 14.5973 205.232 13.328 207.589 12.784C210.128 12.0587 213.12 11.0613 216.565 9.79199C222.912 7.43466 227.536 5.25866 230.437 3.26399C233.52 1.088 235.514 0 236.421 0C237.872 0 238.778 0.453333 239.141 1.36C239.504 2.26666 239.685 3.536 239.685 5.168C239.685 7.70666 239.504 10.5173 239.141 13.6C238.96 16.6827 238.869 20.0373 238.869 23.664Z" fill="white"/>
<path d="M330.212 128.928C330.212 119.136 331.572 110.251 334.292 102.272C337.012 94.2933 340.911 87.4933 345.988 81.872C351.066 76.2507 357.14 71.8987 364.212 68.816C371.284 65.7333 379.172 64.192 387.876 64.192C396.218 64.192 403.834 65.824 410.724 69.088C417.615 72.1707 423.418 76.6133 428.132 82.416C433.028 88.0373 436.746 94.8373 439.284 102.816C442.004 110.795 443.364 119.68 443.364 129.472C443.364 139.083 442.004 147.877 439.284 155.856C436.564 163.835 432.666 170.635 427.588 176.256C422.692 181.877 416.618 186.229 409.364 189.312C402.111 192.395 393.951 193.936 384.884 193.936C376.724 193.936 369.29 192.304 362.58 189.04C355.871 185.957 350.068 181.605 345.172 175.984C340.458 170.181 336.74 163.291 334.02 155.312C331.482 147.333 330.212 138.539 330.212 128.928ZM386.788 71.808C376.452 71.808 368.474 76.432 362.852 85.68C357.231 94.928 354.42 108.075 354.42 125.12C354.42 144.341 357.412 159.392 363.396 170.272C369.562 180.971 377.54 186.32 387.332 186.32C397.306 186.32 405.103 181.696 410.724 172.448C416.527 163.019 419.428 149.872 419.428 133.008C419.428 113.787 416.346 98.8267 410.18 88.128C404.196 77.248 396.399 71.808 386.788 71.808Z" fill="white"/>
<path d="M492.01 23.664V168.096C492.01 174.08 493.732 177.888 497.178 179.52C498.628 180.245 500.079 180.699 501.53 180.88C502.98 180.88 504.25 180.971 505.338 181.152C506.607 181.333 507.604 181.787 508.33 182.512C509.055 183.056 509.418 184.144 509.418 185.776C509.418 188.315 507.604 189.584 503.978 189.584C500.895 189.584 497.359 189.312 493.37 188.768C489.38 188.224 485.119 187.952 480.586 187.952C475.871 187.952 471.61 188.224 467.802 188.768C464.175 189.312 461.092 189.584 458.554 189.584C455.29 189.584 453.658 188.133 453.658 185.232C453.658 182.693 454.564 181.424 456.378 181.424C458.372 181.424 460.82 180.88 463.722 179.792C466.26 178.885 467.802 177.707 468.346 176.256C468.89 174.624 469.162 172.448 469.162 169.728V28.288C469.162 25.9307 468.527 24.208 467.258 23.12C466.17 22.032 464.81 21.216 463.178 20.672C461.727 20.128 460.367 19.584 459.098 19.04C458.01 18.496 457.466 17.68 457.466 16.592C457.466 14.5973 458.644 13.328 461.002 12.784C463.54 12.0587 466.442 11.0613 469.706 9.79199C476.052 7.43466 480.676 5.25866 483.578 3.26399C486.66 1.088 488.655 0 489.562 0C491.012 0 491.919 0.453333 492.282 1.36C492.644 2.26666 492.826 3.536 492.826 5.168C492.826 7.52532 492.644 10.2453 492.282 13.328C492.1 16.4107 492.01 19.856 492.01 23.664Z" fill="white"/>
<path d="M565.065 103.632C573.95 103.632 580.388 102.635 584.377 100.64C588.548 98.6453 590.633 94.656 590.633 88.672C590.633 84.1387 588.729 79.968 584.921 76.16C581.294 72.352 576.58 70.448 570.777 70.448C564.43 70.448 558.9 72.896 554.185 77.792C549.47 82.688 546.388 88.8533 544.937 96.288L544.121 100.64V101.184C544.121 102.816 545.209 103.632 547.385 103.632H565.065ZM605.321 112.064H545.209C543.758 112.064 542.852 112.336 542.489 112.88C542.126 113.424 541.945 114.603 541.945 116.416V122.944C541.945 139.808 545.481 153.136 552.553 162.928C559.806 172.72 569.145 177.616 580.569 177.616C585.646 177.616 589.998 176.8 593.625 175.168C597.433 173.536 600.516 171.723 602.873 169.728C605.412 167.733 607.316 165.92 608.585 164.288C610.036 162.656 611.033 161.84 611.577 161.84C613.028 161.84 613.753 162.837 613.753 164.832C613.753 166.827 612.665 169.456 610.489 172.72C608.313 175.984 605.14 179.248 600.969 182.512C596.98 185.595 592.174 188.315 586.553 190.672C580.932 193.029 574.585 194.208 567.513 194.208C560.078 194.208 553.278 192.667 547.113 189.584C541.129 186.683 535.961 182.421 531.609 176.8C527.257 171.179 523.902 164.379 521.545 156.4C519.188 148.421 518.009 139.445 518.009 129.472C518.009 119.499 519.278 110.523 521.817 102.544C524.537 94.384 528.254 87.4933 532.969 81.872C537.684 76.2507 543.214 71.8987 549.561 68.816C556.089 65.7333 563.161 64.192 570.777 64.192C577.305 64.192 583.289 65.3707 588.729 67.728C594.169 69.904 598.793 72.896 602.601 76.704C606.409 80.512 609.31 84.9547 611.305 90.032C613.481 95.1093 614.569 100.549 614.569 106.352C614.569 108.709 613.844 110.251 612.393 110.976C610.942 111.701 608.585 112.064 605.321 112.064Z" fill="white"/>
<path d="M730.979 38.624V88.128C730.979 90.4853 732.157 91.664 734.515 91.664H796.259C798.435 91.664 799.523 90.3947 799.523 87.856V38.624C799.523 34.272 799.251 31.3707 798.707 29.92C798.163 28.288 796.531 27.0187 793.811 26.112C791.997 25.568 790.275 25.296 788.643 25.296C787.192 25.296 785.832 25.2053 784.563 25.024C783.475 24.8427 782.568 24.5707 781.843 24.208C781.299 23.664 781.027 22.6667 781.027 21.216C781.027 18.6773 782.387 17.408 785.107 17.408C786.557 17.408 789.459 17.7707 793.811 18.496C798.163 19.2213 804.237 19.584 812.035 19.584C819.832 19.584 825.907 19.2213 830.259 18.496C834.611 17.7707 837.512 17.408 838.963 17.408C841.683 17.408 843.043 18.6773 843.043 21.216C843.043 22.4853 842.771 23.392 842.227 23.936C841.683 24.2987 840.867 24.5707 839.779 24.752C838.691 24.9333 837.421 25.1147 835.971 25.296C834.52 25.296 832.979 25.4773 831.347 25.84C827.901 26.5653 825.816 27.8347 825.091 29.648C824.547 31.28 824.275 34.272 824.275 38.624V163.2C824.275 166.101 824.275 168.459 824.275 170.272C824.456 172.085 824.728 173.627 825.091 174.896C825.635 175.984 826.36 176.891 827.267 177.616C828.173 178.341 829.533 178.976 831.347 179.52C832.979 180.064 834.52 180.336 835.971 180.336C837.421 180.336 838.691 180.427 839.779 180.608C840.867 180.789 841.773 181.243 842.499 181.968C843.224 182.512 843.587 183.509 843.587 184.96C843.587 187.499 841.592 188.768 837.603 188.768C835.971 188.768 833.069 188.496 828.899 187.952C824.728 187.408 819.107 187.136 812.035 187.136C804.963 187.136 799.251 187.408 794.899 187.952C790.728 188.496 787.827 188.768 786.195 188.768C782.205 188.768 780.211 187.317 780.211 184.416C780.211 183.147 780.483 182.24 781.027 181.696C781.752 181.152 782.568 180.789 783.475 180.608C784.563 180.427 785.741 180.336 787.011 180.336C788.28 180.336 789.549 180.155 790.819 179.792C792.995 179.248 794.627 178.613 795.715 177.888C796.984 177.163 797.891 176.256 798.435 175.168C798.979 173.899 799.251 172.357 799.251 170.544C799.432 168.549 799.523 166.101 799.523 163.2V104.992C799.523 102.453 798.435 101.184 796.259 101.184H734.515C732.157 101.184 730.979 102.453 730.979 104.992V163.2C730.979 166.101 730.979 168.459 730.979 170.272C731.16 172.085 731.432 173.627 731.795 174.896C732.339 175.984 733.064 176.891 733.971 177.616C735.059 178.341 736.509 178.976 738.323 179.52C739.955 180.064 741.496 180.336 742.947 180.336C744.397 180.336 745.667 180.427 746.755 180.608C747.843 180.789 748.659 181.243 749.203 181.968C749.928 182.512 750.291 183.509 750.291 184.96C750.291 187.499 748.387 188.768 744.579 188.768C742.947 188.768 739.955 188.496 735.603 187.952C731.432 187.408 725.811 187.136 718.739 187.136C711.667 187.136 705.955 187.408 701.603 187.952C697.432 188.496 694.531 188.768 692.899 188.768C689.091 188.768 687.187 187.317 687.187 184.416C687.187 183.147 687.459 182.24 688.003 181.696C688.728 181.152 689.544 180.789 690.451 180.608C691.539 180.427 692.717 180.336 693.987 180.336C695.256 180.336 696.525 180.155 697.795 179.792C699.971 179.248 701.603 178.613 702.691 177.888C703.96 177.163 704.867 176.256 705.411 175.168C705.955 173.899 706.227 172.357 706.227 170.544C706.408 168.549 706.499 166.101 706.499 163.2V38.624C706.499 34.272 706.136 31.3707 705.411 29.92C704.867 28.288 703.235 27.0187 700.515 26.112C698.701 25.568 696.979 25.296 695.347 25.296C693.896 25.296 692.536 25.2053 691.267 25.024C690.179 24.8427 689.272 24.5707 688.547 24.208C688.003 23.664 687.731 22.6667 687.731 21.216C687.731 18.6773 689.091 17.408 691.811 17.408C693.261 17.408 696.163 17.7707 700.515 18.496C704.867 19.2213 710.941 19.584 718.739 19.584C726.536 19.584 732.611 19.2213 736.963 18.496C741.315 17.7707 744.216 17.408 745.667 17.408C748.387 17.408 749.747 18.6773 749.747 21.216C749.747 22.4853 749.475 23.392 748.931 23.936C748.387 24.2987 747.571 24.5707 746.483 24.752C745.395 24.9333 744.125 25.1147 742.675 25.296C741.224 25.296 739.683 25.4773 738.051 25.84C734.605 26.5653 732.52 27.8347 731.795 29.648C731.251 31.28 730.979 34.272 730.979 38.624Z" fill="white"/>
<path d="M932.867 95.2V158.304C932.867 164.107 933.229 168.459 933.955 171.36C934.68 174.261 936.584 175.712 939.667 175.712C941.661 175.712 943.475 174.805 945.107 172.992C946.739 171.179 948.371 170.272 950.003 170.272C952.179 170.272 953.266 171.632 953.266 174.352C953.266 175.803 952.45 177.616 950.818 179.792C949.186 181.787 947.192 183.781 944.835 185.776C942.659 187.771 940.21 189.493 937.49 190.944C934.952 192.395 932.595 193.12 930.419 193.12C925.704 193.12 921.805 191.579 918.722 188.496C915.64 185.413 913.101 180.789 911.107 174.624H909.474L903.763 179.52C899.048 183.509 894.605 186.864 890.435 189.584C886.264 192.485 881.64 193.936 876.562 193.936C870.76 193.936 866.045 192.032 862.419 188.224C858.973 184.235 857.25 178.795 857.25 171.904C857.25 165.92 858.248 160.661 860.242 156.128C862.237 151.595 865.138 147.515 868.946 143.888C872.754 140.08 877.288 136.544 882.547 133.28C887.987 130.016 893.97 126.752 900.498 123.488L907.299 119.952C908.749 119.227 909.565 118.501 909.747 117.776C910.109 116.869 910.291 115.419 910.291 113.424V94.112C910.291 86.496 909.656 80.9653 908.386 77.52C907.298 74.0747 904.397 72.352 899.682 72.352C894.968 72.352 891.251 73.984 888.531 77.248C885.811 80.3307 883.181 84.7733 880.643 90.576C878.648 95.1093 876.381 99.008 873.843 102.272C871.485 105.355 867.586 106.896 862.146 106.896C860.696 106.896 859.427 106.443 858.339 105.536C857.432 104.629 856.979 103.451 856.979 102C856.979 98.0107 858.157 93.7493 860.515 89.216C863.053 84.6827 866.499 80.6027 870.851 76.976C875.384 73.168 880.643 70.0853 886.627 67.728C892.792 65.1893 899.41 63.92 906.482 63.92C912.285 63.92 916.909 64.6453 920.354 66.096C923.981 67.3653 926.701 69.36 928.515 72.08C930.328 74.6187 931.506 77.8827 932.05 81.872C932.594 85.68 932.867 90.1227 932.867 95.2ZM910.562 130.832C910.562 128.656 910.109 127.568 909.203 127.568C908.659 127.568 907.752 127.931 906.482 128.656L897.507 133.008C886.808 138.448 881.458 147.515 881.458 160.208C881.458 165.467 882.365 169.456 884.179 172.176C886.173 174.896 888.712 176.256 891.794 176.256C893.97 176.256 896.147 175.712 898.323 174.624C900.499 173.355 902.493 171.723 904.307 169.728C906.12 167.552 907.571 165.013 908.659 162.112C909.928 159.211 910.562 155.947 910.562 152.32V130.832Z" fill="white"/>
<path d="M993.756 69.088V79.696C993.756 81.328 994.028 82.144 994.572 82.144C994.935 82.144 995.751 81.5093 997.02 80.24L1002.46 74.256C1008.26 67.3653 1014.43 63.92 1020.96 63.92C1025.85 63.92 1030.02 65.7333 1033.47 69.36C1036.91 72.9867 1038.64 77.52 1038.64 82.96C1038.64 86.9493 1037.37 90.2133 1034.83 92.752C1032.47 95.2907 1029.57 96.56 1026.12 96.56C1023.4 96.56 1021.05 95.9253 1019.05 94.656C1017.06 93.2053 1015.24 91.664 1013.61 90.032C1011.98 88.4 1010.44 86.9493 1008.99 85.68C1007.54 84.2293 1006.09 83.504 1004.64 83.504C997.927 83.504 994.572 92.0267 994.572 109.072V168.096C994.572 171.179 994.935 173.536 995.66 175.168C996.386 176.619 997.836 177.797 1000.01 178.704C1002.19 179.792 1004.18 180.517 1006 180.88C1007.81 181.061 1009.26 181.333 1010.35 181.696C1011.62 181.877 1012.61 182.24 1013.34 182.784C1014.07 183.328 1014.43 184.325 1014.43 185.776C1014.43 186.864 1013.88 187.861 1012.8 188.768C1011.89 189.493 1010.44 189.856 1008.44 189.856C1004.82 189.856 1000.83 189.493 996.476 188.768C992.306 188.224 987.863 187.952 983.148 187.952C978.796 187.952 974.716 188.224 970.908 188.768C967.282 189.312 964.018 189.584 961.116 189.584C957.852 189.584 956.22 188.133 956.22 185.232C956.22 183.963 956.492 183.147 957.036 182.784C957.58 182.24 958.306 181.877 959.212 181.696C960.119 181.333 961.207 181.061 962.476 180.88C963.746 180.699 965.106 180.245 966.556 179.52C969.095 178.251 970.546 176.981 970.908 175.712C971.452 174.261 971.724 172.267 971.724 169.728V100.096C971.724 96.832 971.09 94.656 969.82 93.568C968.732 92.48 967.463 91.7547 966.012 91.392C964.743 91.0293 963.474 90.7573 962.204 90.576C961.116 90.2133 960.572 89.216 960.572 87.584C960.572 85.5893 961.751 84.1387 964.108 83.232C966.466 82.144 969.548 80.3307 973.356 77.792C978.615 74.1653 982.423 70.9013 984.78 68C987.319 64.9173 989.404 63.376 991.036 63.376C992.85 63.376 993.756 65.28 993.756 69.088Z" fill="white"/>
<path d="M1082.7 98.736L1099.02 151.232C1099.2 152.32 1099.75 152.864 1100.65 152.864C1101.2 152.864 1101.65 152.32 1102.01 151.232L1118.88 100.64C1120.15 96.832 1120.96 93.568 1121.33 90.848C1121.87 88.128 1122.14 86.1333 1122.14 84.864C1122.14 81.9627 1121.24 80.0587 1119.42 79.152C1117.79 78.064 1115.98 77.3387 1113.98 76.976C1111.99 76.432 1110.08 75.9787 1108.27 75.616C1106.64 75.2533 1105.82 74.1653 1105.82 72.352C1105.82 70.72 1106.09 69.7227 1106.64 69.36C1107.36 68.9973 1108.63 68.816 1110.45 68.816C1111.9 68.816 1114.44 68.9973 1118.06 69.36C1121.69 69.7227 1126.31 69.904 1131.93 69.904C1136.65 69.904 1140.19 69.8133 1142.54 69.632C1145.08 69.2693 1146.71 69.088 1147.44 69.088C1149.07 69.088 1150.07 69.2693 1150.43 69.632C1150.97 69.9947 1151.25 70.9013 1151.25 72.352C1151.25 74.8907 1150.34 76.16 1148.53 76.16C1146.71 76.16 1144.72 76.6133 1142.54 77.52C1139.46 78.7893 1136.92 81.056 1134.93 84.32C1133.11 87.584 1130.94 92.5707 1128.4 99.28L1096.85 186.048C1095.4 190.037 1093.67 192.032 1091.68 192.032C1090.05 192.032 1089.05 191.488 1088.69 190.4C1088.32 189.312 1087.78 187.771 1087.05 185.776L1057.41 94.384C1055.59 88.7627 1053.6 84.7733 1051.42 82.416C1049.43 79.8773 1047.52 78.1547 1045.71 77.248C1043.9 76.3413 1042.45 75.7067 1041.36 75.344C1040.09 74.9813 1039.45 73.984 1039.45 72.352C1039.45 69.9947 1040.72 68.816 1043.26 68.816C1044.53 68.816 1046.89 69.088 1050.33 69.632C1053.78 70.176 1058.49 70.448 1064.48 70.448C1072.09 70.448 1077.9 70.2667 1081.89 69.904C1085.88 69.36 1088.32 69.088 1089.23 69.088C1091.41 69.088 1092.49 70.0853 1092.49 72.08C1092.49 73.712 1091.77 74.8 1090.32 75.344C1089.05 75.7067 1087.6 76.0693 1085.97 76.432C1084.33 76.7947 1082.79 77.3387 1081.34 78.064C1080.07 78.7893 1079.44 80.1493 1079.44 82.144C1079.44 83.4133 1079.62 85.4987 1079.98 88.4C1080.53 91.12 1081.43 94.5653 1082.7 98.736Z" fill="white"/>
<path d="M1197.25 103.632C1206.14 103.632 1212.58 102.635 1216.56 100.64C1220.74 98.6453 1222.82 94.656 1222.82 88.672C1222.82 84.1387 1220.92 79.968 1217.11 76.16C1213.48 72.352 1208.77 70.448 1202.96 70.448C1196.62 70.448 1191.09 72.896 1186.37 77.792C1181.66 82.688 1178.58 88.8533 1177.12 96.288L1176.31 100.64V101.184C1176.31 102.816 1177.4 103.632 1179.57 103.632H1197.25ZM1237.51 112.064H1177.4C1175.95 112.064 1175.04 112.336 1174.68 112.88C1174.31 113.424 1174.13 114.603 1174.13 116.416V122.944C1174.13 139.808 1177.67 153.136 1184.74 162.928C1191.99 172.72 1201.33 177.616 1212.76 177.616C1217.83 177.616 1222.19 176.8 1225.81 175.168C1229.62 173.536 1232.7 171.723 1235.06 169.728C1237.6 167.733 1239.5 165.92 1240.77 164.288C1242.22 162.656 1243.22 161.84 1243.76 161.84C1245.22 161.84 1245.94 162.837 1245.94 164.832C1245.94 166.827 1244.85 169.456 1242.68 172.72C1240.5 175.984 1237.33 179.248 1233.16 182.512C1229.17 185.595 1224.36 188.315 1218.74 190.672C1213.12 193.029 1206.77 194.208 1199.7 194.208C1192.27 194.208 1185.47 192.667 1179.3 189.584C1173.32 186.683 1168.15 182.421 1163.8 176.8C1159.44 171.179 1156.09 164.379 1153.73 156.4C1151.38 148.421 1150.2 139.445 1150.2 129.472C1150.2 119.499 1151.47 110.523 1154 102.544C1156.72 94.384 1160.44 87.4933 1165.16 81.872C1169.87 76.2507 1175.4 71.8987 1181.75 68.816C1188.28 65.7333 1195.35 64.192 1202.96 64.192C1209.49 64.192 1215.48 65.3707 1220.92 67.728C1226.36 69.904 1230.98 72.896 1234.79 76.704C1238.6 80.512 1241.5 84.9547 1243.49 90.032C1245.67 95.1093 1246.76 100.549 1246.76 106.352C1246.76 108.709 1246.03 110.251 1244.58 110.976C1243.13 111.701 1240.77 112.064 1237.51 112.064Z" fill="white"/>
<path d="M1300.4 64.192C1311.83 64.192 1319.62 65.28 1323.79 67.456C1327.96 69.632 1330.05 73.0773 1330.05 77.792C1330.05 84.1387 1329.78 88.8533 1329.23 91.936C1328.69 94.8373 1327.51 96.288 1325.7 96.288C1323.7 96.288 1322.52 95.0187 1322.16 92.48C1321.8 89.9413 1320.53 86.768 1318.35 82.96C1313.82 75.1627 1307.84 71.264 1300.4 71.264C1295.14 71.264 1290.88 72.8053 1287.62 75.888C1284.54 78.7893 1282.99 82.5973 1282.99 87.312C1282.99 90.3947 1283.63 93.024 1284.9 95.2C1286.17 97.1947 1287.98 99.0987 1290.34 100.912C1292.7 102.725 1295.51 104.539 1298.77 106.352C1302.22 107.984 1306.02 109.888 1310.19 112.064C1319.08 116.779 1325.61 122.128 1329.78 128.112C1333.95 133.915 1336.03 141.259 1336.03 150.144C1336.03 157.035 1334.95 163.2 1332.77 168.64C1330.78 174.08 1327.87 178.704 1324.07 182.512C1320.26 186.139 1315.72 188.949 1310.47 190.944C1305.39 192.939 1299.77 193.936 1293.6 193.936C1287.44 193.936 1281.91 193.211 1277.01 191.76C1272.11 190.491 1268.4 189.04 1265.86 187.408C1264.23 186.501 1263.23 185.323 1262.87 183.872C1262.5 182.421 1262.32 180.427 1262.32 177.888V171.088C1262.32 163.653 1262.5 158.304 1262.87 155.04C1263.23 151.595 1264.41 149.872 1266.4 149.872C1267.67 149.872 1268.58 150.325 1269.12 151.232C1269.67 152.139 1270.12 153.499 1270.48 155.312C1271.03 156.944 1271.57 159.029 1272.11 161.568C1272.84 163.925 1273.93 166.645 1275.38 169.728C1280.46 180.789 1287.71 186.32 1297.14 186.32C1302.94 186.32 1307.66 184.325 1311.28 180.336C1315.09 176.347 1316.99 170.997 1316.99 164.288C1316.99 160.843 1316.36 157.851 1315.09 155.312C1314 152.592 1312.28 150.235 1309.92 148.24C1307.75 146.064 1305.03 144.069 1301.76 142.256C1298.5 140.261 1294.87 138.176 1290.88 136C1286.35 133.643 1282.36 131.376 1278.91 129.2C1275.47 126.843 1272.57 124.395 1270.21 121.856C1267.85 119.136 1266.04 116.144 1264.77 112.88C1263.68 109.435 1263.14 105.445 1263.14 100.912C1263.14 89.6693 1266.58 80.784 1273.47 74.256C1280.55 67.5467 1289.52 64.192 1300.4 64.192Z" fill="white"/>
<path d="M1383.67 48.96V65.552C1383.67 67.9093 1384.85 69.088 1387.2 69.088H1407.6C1409.24 69.088 1410.23 69.2693 1410.6 69.632C1410.96 69.9947 1411.14 70.72 1411.14 71.808V77.248C1411.14 78.6987 1410.96 79.696 1410.6 80.24C1410.23 80.784 1409.24 81.056 1407.6 81.056H1386.93C1384.76 81.056 1383.67 82.2347 1383.67 84.592V153.408C1383.67 161.931 1384.39 168.187 1385.84 172.176C1387.48 175.984 1390.38 177.888 1394.55 177.888C1396.54 177.888 1398.27 177.525 1399.72 176.8C1401.35 176.075 1402.8 175.259 1404.07 174.352C1405.34 173.264 1406.43 172.357 1407.33 171.632C1408.42 170.907 1409.42 170.544 1410.32 170.544C1412.14 170.544 1413.04 171.813 1413.04 174.352C1413.04 175.621 1412.23 177.344 1410.6 179.52C1408.96 181.696 1406.7 183.872 1403.8 186.048C1401.08 188.224 1397.81 190.037 1394 191.488C1390.38 193.12 1386.48 193.936 1382.31 193.936C1367.8 193.936 1360.55 182.421 1360.55 159.392V147.968L1361.64 89.488C1361.64 86.9493 1361.45 84.9547 1361.09 83.504C1360.73 81.872 1359.64 81.056 1357.83 81.056H1352.93C1349.67 81.056 1348.04 79.8773 1348.04 77.52C1348.04 76.432 1348.49 75.4347 1349.4 74.528C1350.3 73.6213 1351.57 72.624 1353.2 71.536C1354.84 70.448 1356.65 69.088 1358.64 67.456C1360.82 65.824 1363.18 63.648 1365.72 60.928C1370.07 55.8507 1373.24 51.4987 1375.24 47.872C1377.41 44.2453 1379.32 42.432 1380.95 42.432C1382.22 42.432 1382.94 43.0667 1383.12 44.336C1383.49 45.424 1383.67 46.9653 1383.67 48.96Z" fill="white"/>
<path d="M262.954 334.044C256.864 334.044 251.615 332.739 247.207 330.129C242.857 327.461 239.493 323.778 237.115 319.08C234.795 314.324 233.635 308.843 233.635 302.637C233.635 296.431 234.795 290.95 237.115 286.194C239.493 281.438 242.857 277.726 247.207 275.058C251.615 272.39 256.864 271.056 262.954 271.056C270.32 271.056 276.352 272.883 281.05 276.537C285.748 280.191 288.677 285.353 289.837 292.023H277.048C276.294 288.775 274.699 286.252 272.263 284.454C269.885 282.598 266.753 281.67 262.867 281.67C259.271 281.67 256.168 282.54 253.558 284.28C251.006 285.962 249.034 288.369 247.642 291.501C246.25 294.575 245.554 298.287 245.554 302.637C245.554 306.929 246.25 310.641 247.642 313.773C249.034 316.905 251.006 319.312 253.558 320.994C256.168 322.676 259.271 323.517 262.867 323.517C266.753 323.517 269.885 322.676 272.263 320.994C274.641 319.254 276.207 316.847 276.961 313.773H289.837C288.677 320.095 285.748 325.054 281.05 328.65C276.352 332.246 270.32 334.044 262.954 334.044Z" fill="#CFF07C"/>
<path d="M414.097 334.044C408.181 334.044 402.961 332.71 398.437 330.042C393.913 327.374 390.375 323.691 387.823 318.993C385.271 314.237 383.995 308.756 383.995 302.55C383.995 296.344 385.271 290.892 387.823 286.194C390.375 281.438 393.913 277.726 398.437 275.058C402.961 272.39 408.181 271.056 414.097 271.056C420.071 271.056 425.32 272.39 429.844 275.058C434.368 277.726 437.877 281.438 440.371 286.194C442.923 290.892 444.199 296.344 444.199 302.55C444.199 308.756 442.923 314.237 440.371 318.993C437.877 323.691 434.368 327.374 429.844 330.042C425.32 332.71 420.071 334.044 414.097 334.044ZM414.097 323.517C417.809 323.517 420.999 322.676 423.667 320.994C426.393 319.254 428.51 316.818 430.018 313.686C431.526 310.554 432.28 306.842 432.28 302.55C432.28 298.2 431.526 294.488 430.018 291.414C428.51 288.282 426.393 285.875 423.667 284.193C420.999 282.511 417.809 281.67 414.097 281.67C410.443 281.67 407.253 282.511 404.527 284.193C401.801 285.875 399.684 288.282 398.176 291.414C396.668 294.488 395.914 298.2 395.914 302.55C395.914 306.842 396.668 310.554 398.176 313.686C399.684 316.818 401.801 319.254 404.527 320.994C407.253 322.676 410.443 323.517 414.097 323.517Z" fill="#CFF07C"/>
<path d="M540.35 333V272.1H554.357L572.975 310.119L591.419 272.1H605.426V333H593.681V292.11L577.586 324.474H568.277L552.095 292.11V333H540.35Z" fill="#CFF07C"/>
<path d="M703.54 333V272.1H726.334C731.264 272.1 735.353 272.941 738.601 274.623C741.849 276.305 744.256 278.567 745.822 281.409C747.388 284.251 748.171 287.499 748.171 291.153C748.171 294.517 747.417 297.62 745.909 300.462C744.401 303.304 742.023 305.624 738.775 307.422C735.527 309.162 731.38 310.032 726.334 310.032H715.285V333H703.54ZM715.285 300.549H725.638C729.408 300.549 732.105 299.708 733.729 298.026C735.411 296.286 736.252 293.995 736.252 291.153C736.252 288.137 735.411 285.817 733.729 284.193C732.105 282.511 729.408 281.67 725.638 281.67H715.285V300.549Z" fill="#CFF07C"/>
<path d="M832.734 333L855.006 272.1H868.317L890.502 333H878.061L861.618 285.498L845.088 333H832.734ZM842.565 319.167L845.697 310.032H876.669L879.714 319.167H842.565Z" fill="#CFF07C"/>
<path d="M984.635 333V272.1H996.38L1024.39 314.121V272.1H1036.14V333H1024.39L996.38 291.066V333H984.635Z" fill="#CFF07C"/>
<path d="M1149.89 333V311.598L1129.36 272.1H1142.67L1157.03 302.202H1154.68L1168.95 272.1H1182.17L1161.64 311.598V333H1149.89Z" fill="#CFF07C"/>
</svg>
