<svg width="377" height="402" viewBox="0 0 377 402" fill="none" xmlns="http://www.w3.org/2000/svg">
<path fill-rule="evenodd" clip-rule="evenodd" d="M330.223 227.528C316.961 215.122 296.221 215.576 283.515 228.55L282.137 229.957C281.41 230.699 280.261 230.812 279.373 230.274C272.393 226.045 264.909 224.454 257.911 224.579C257.271 224.591 256.654 224.332 256.214 223.867C247.918 215.104 237.389 210.762 226.804 210.2C226.14 210.165 225.526 209.844 225.121 209.317C220.729 203.598 213.734 197.081 202.672 193.444C201.81 193.161 201.19 192.389 201.14 191.483C201.023 189.342 200.924 187.151 200.824 184.905C200.783 183.994 200.742 183.073 200.699 182.143C201.122 168.724 204.968 151.705 219.737 136.047C220.444 135.297 221.592 135.181 222.459 135.74C243.219 149.12 263.028 154.734 281.45 154.001C302.441 153.167 320.299 144.146 334.462 131.501C348.555 118.918 359.237 102.559 366.299 86.1892C373.329 69.8924 377.096 52.8206 376.625 38.5025C376.286 28.2013 365.347 24.9309 358.82 28.715C352.015 32.6602 325.802 42.9405 286.581 46.6406C250.142 50.0782 229.033 63.807 218.028 80.6415C209.889 93.0925 207.965 106.231 208.537 115.852C208.576 116.509 208.328 117.15 207.852 117.604C203.083 122.155 199.079 126.833 195.724 131.552C194.669 133.036 192.312 132.737 191.686 131.028C187.987 120.934 182.687 110.098 175.025 98.4392C174.762 98.0389 174.637 97.5586 174.671 97.0808C176.308 74.1775 174.279 55.4187 167.967 40.5603C161.04 24.2524 149.287 13.4463 133.766 7.18269C118.702 1.10327 100.444 -0.570501 80.1499 0.160061C59.7516 0.894379 36.3642 4.10702 10.5967 8.4896C3.89421 9.62958 -1.38975 16.8129 1.57714 24.3795C10.8061 47.9164 31.2041 77.936 59.5778 97.9762C86.0232 116.654 119.988 126.953 157.799 114.398C158.757 114.08 159.827 114.456 160.351 115.319C176.899 142.536 178.262 163.135 179.245 183.454C179.221 185.361 179.248 187.191 179.312 188.932C179.354 190.078 178.51 191.067 177.377 191.237C163.593 193.305 153.091 200.607 146.974 207.257C146.609 207.654 146.115 207.908 145.58 207.974C133.162 209.496 123.084 215.169 116.635 223.817C111.54 230.647 109.109 238.826 109.345 247.118C109.375 248.153 108.713 249.092 107.718 249.381C85.9846 255.674 66.8799 269.503 54.1102 288.799L30.3765 324.663C27.1102 329.599 28.4636 336.248 33.3994 339.515C38.3352 342.781 44.9843 341.427 48.2507 336.492L71.9843 300.628C85.4242 280.318 107.887 267.797 132.229 267.046L206.008 264.768C212.082 264.58 217.274 269.105 217.919 275.148C218.513 280.718 214.892 285.869 209.449 287.196L142.541 303.505C137.62 304.704 134.157 309.112 134.157 314.177C134.157 321.082 140.452 326.275 147.231 324.962L186.393 317.374C218.65 311.124 248.24 295.204 271.229 271.729L298.828 243.547C303.385 238.893 310.824 238.73 315.58 243.18C320.504 247.786 320.661 255.545 315.928 260.347L238.632 338.769C229.637 347.895 217.671 353.495 204.902 354.555L106.258 362.743C95.1287 363.666 84.7404 368.694 77.1113 376.85L70.6037 383.806C66.5602 388.128 66.7863 394.91 71.1086 398.953C75.4308 402.997 82.2126 402.771 86.256 398.448L92.7636 391.492C96.7598 387.22 102.201 384.587 108.031 384.103L206.675 375.915C224.551 374.431 241.305 366.591 253.897 353.815L331.193 275.393C344.389 262.004 343.951 240.37 330.223 227.528ZM205.346 243.344C220.916 242.863 234.45 253.268 238.317 267.907C238.733 269.479 240.614 270.249 241.897 269.25C246.825 265.41 251.51 261.231 255.915 256.733L262.97 249.529C264.06 248.416 263.633 246.566 262.1 246.291C259.488 245.822 256.861 245.935 254.35 246.444L250.175 247.291C248.487 247.634 246.759 246.933 245.786 245.513L243.378 241.998C237.585 233.543 229.316 230.762 221.417 231.761L217.112 232.306C215.377 232.525 213.683 231.669 212.831 230.143L210.715 226.353C208.153 221.763 202.784 213.566 188.064 212.232C173.256 210.889 163.262 220.271 161.139 223.803L159.288 226.883C158.521 228.159 157.146 228.946 155.658 228.961L152.064 228.998C142.413 229.097 136.733 232.72 133.816 236.63C132.357 238.587 131.378 240.887 130.972 243.385C130.773 244.606 131.803 245.618 133.04 245.58L205.346 243.344ZM149.208 68.3159C150.705 69.6127 153.051 68.4612 152.787 66.4989C151.859 59.6016 150.305 53.803 148.24 48.9402C143.66 38.1593 136.297 31.3171 125.745 27.0587C114.737 22.6161 99.9646 20.8942 80.921 21.5797C65.8739 22.1214 48.7324 24.1361 29.5173 27.1192C28.0631 27.3449 27.2587 28.9272 27.9626 30.2195C37.4308 47.6022 52.6572 66.8476 71.943 80.4691C92.0267 94.6541 116.019 102.495 142.789 96.3661C144.339 96.0111 144.916 94.1396 143.841 92.9673C134.341 82.6056 123.332 74.4369 110.583 69.4127C105.076 67.2427 102.372 61.0196 104.542 55.513C106.712 50.0065 112.935 47.3016 118.441 49.4716C130.017 54.0334 140.222 60.5277 149.208 68.3159ZM243.67 119.579C242.028 120.204 241.928 122.406 243.487 123.218C257.403 130.467 269.797 133.014 280.599 132.585C295.638 131.987 308.926 125.567 320.187 115.513C331.518 105.396 340.537 91.7968 346.618 77.6997C349.553 70.897 351.727 64.1555 353.157 57.8316C353.525 56.2056 351.947 54.8512 350.368 55.3849C335.621 60.3671 314.435 65.5415 288.595 67.9793C256.875 70.9717 242.53 82.3312 235.968 92.3692C234.995 93.8585 234.165 95.3599 233.46 96.8525C232.663 98.5409 234.409 100.167 236.155 99.5056C244.278 96.4262 253.416 94.3567 263.652 93.4984C269.55 93.0039 274.732 97.3843 275.226 103.282C275.721 109.18 271.34 114.362 265.442 114.857C257.057 115.56 249.863 117.22 243.67 119.579Z" fill="#CFF07C"/>
</svg>
